<?xml version="1.0" standalone="no"?>
<!DOCTYPE svg PUBLIC "-//W3C//DTD SVG 20010904//EN"
 "http://www.w3.org/TR/2001/REC-SVG-20010904/DTD/svg10.dtd">
<svg version="1.0" xmlns="http://www.w3.org/2000/svg"
 width="512.000000pt" height="512.000000pt" viewBox="0 0 512.000000 512.000000"
 preserveAspectRatio="xMidYMid meet">
<metadata>
Created by potrace 1.14, written by Peter Selinger 2001-2017
</metadata>
<g transform="translate(0.000000,512.000000) scale(0.100000,-0.100000)"
fill="#000000" stroke="none">
<path d="M3672 5085 c-139 -43 -314 -277 -396 -530 -23 -69 -35 -125 -61 -270
-13 -77 -20 -220 -19 -435 l1 -235 -251 1 c-230 2 -310 -2 -436 -21 -440 -65
-750 -281 -916 -639 -71 -156 -111 -324 -129 -556 -6 -79 -6 -352 1 -442 l6
-87 -49 6 c-70 7 -395 8 -488 0 -365 -29 -623 -126 -825 -310 -61 -56 -85 -99
-89 -157 -3 -58 19 -109 63 -147 59 -53 122 -63 202 -33 28 11 34 5 491 -452
l464 -464 -15 -29 c-9 -17 -16 -49 -16 -73 0 -111 92 -195 204 -186 57 4 87
21 139 78 121 132 216 333 271 574 46 201 51 257 51 543 l-1 247 236 -3 c261
-2 396 7 557 41 348 72 611 256 771 539 44 77 114 259 128 329 2 11 8 44 13
71 28 142 36 272 34 536 l-1 226 61 -3 c250 -13 523 -2 667 26 30 6 70 13 89
16 63 10 212 63 294 105 164 82 309 207 354 305 30 67 29 147 -4 192 -47 65
-154 83 -241 39 l-50 -25 -450 449 c-248 248 -455 456 -461 463 -8 10 -5 28
14 69 45 98 32 177 -38 224 -41 28 -119 36 -175 18z m500 -878 c238 -239 441
-443 451 -454 17 -20 16 -21 -50 -56 -72 -37 -206 -83 -260 -89 -31 -3 -51 15
-373 337 -187 187 -340 346 -340 355 0 64 109 340 134 340 3 0 199 -195 438
-433z m-362 -397 c126 -126 226 -231 222 -233 -19 -11 -436 4 -449 16 -6 7
-16 447 -10 447 4 0 110 -103 237 -230z m-682 -574 c52 -2 96 -6 98 -9 7 -7
14 -497 7 -497 -3 0 -120 114 -259 253 l-253 252 52 5 c58 6 214 4 355 -4z
m-284 -385 l360 -360 -12 -51 c-17 -75 -60 -177 -99 -239 l-35 -54 -456 457
-457 457 25 19 c52 42 239 119 310 129 3 1 167 -161 364 -358z m67 -845 c-25
-29 -198 -104 -291 -125 l-39 -9 -353 354 c-194 194 -354 358 -356 364 -10 29
73 244 121 313 l19 28 456 -455 c372 -372 453 -458 443 -470z m-822 93 c139
-139 250 -254 248 -256 -5 -4 -327 -3 -377 2 -19 2 -53 4 -75 4 l-40 1 -2 58
c-4 84 -9 442 -7 442 1 0 115 -113 253 -251z m-611 -601 c6 -1 13 -11 13 -22
1 -12 3 -37 4 -56 6 -77 9 -339 4 -344 -2 -3 -104 94 -224 215 l-220 219 205
-6 c113 -3 211 -6 218 -6z m-325 -347 c180 -181 327 -335 327 -342 0 -36 -55
-212 -86 -278 l-36 -73 -449 448 c-247 247 -449 452 -449 455 0 12 146 73 225
95 139 39 98 65 468 -305z"/>
</g>
</svg>
